<!DOCTYPE svg PUBLIC "-//W3C//DTD SVG 20010904//EN" "http://www.w3.org/TR/2001/REC-SVG-20010904/DTD/svg10.dtd">
<svg version="1.0" xmlns="http://www.w3.org/2000/svg" width="33px" height="42px" viewBox="0 0 330 420" preserveAspectRatio="xMidYMid meet">
<g id="layerbg1" fill="#fefefe" stroke="none">
 <path d="M0 399 c0 -20 1 -20 23 -6 13 8 34 17 48 20 13 2 3 5 -23 6 -43 1 -48 -1 -48 -20z"/>
 <path d="M239 413 c13 -3 39 -13 57 -24 l34 -19 0 25 c0 24 -3 25 -57 24 -32 -1 -47 -4 -34 -6z"/>
 <path d="M0 173 l0 -173 73 1 c39 0 66 3 59 6 -43 17 -55 127 -21 193 12 22 19 47 16 55 -3 8 -29 24 -57 36 -28 12 -55 29 -60 38 -6 10 -9 -43 -10 -156z"/>
 <path d="M302 315 c-13 -13 -37 -27 -52 -30 -49 -11 -57 -31 -32 -78 15 -28 22 -60 22 -94 0 -63 -7 -83 -30 -83 -10 0 -23 -7 -30 -15 -11 -13 -2 -15 69 -15 l81 0 0 170 c0 94 -1 170 -2 169 -2 -1 -14 -12 -26 -24z"/>
 </g>
<g id="layerbg2" fill="#cdcdcd" stroke="none">
 <path d="M65 415 c-5 -2 -22 -6 -37 -9 -25 -6 -28 -11 -28 -46 0 -46 21 -72 74 -91 42 -15 43 -21 16 -72 -35 -64 -20 -173 25 -191 25 -9 73 -7 80 4 3 6 15 10 25 10 27 0 40 30 40 94 0 38 -6 66 -20 88 -27 44 -25 55 9 63 16 3 41 17 56 31 21 19 26 32 23 62 -3 35 -6 38 -48 49 -41 10 -191 16 -215 8z"/>
 </g>
<g id="layer101" fill="#fefefe" stroke="none">
 <path d="M0 404 c0 -9 5 -12 12 -8 6 4 25 11 42 15 29 7 29 7 -11 8 -33 1 -43 -3 -43 -15z"/>
 <path d="M264 409 c22 -5 45 -14 53 -20 10 -9 13 -7 13 10 0 19 -5 21 -52 20 l-53 -1 39 -9z"/>
 <path d="M0 168 l0 -168 68 1 c37 0 61 3 54 6 -42 17 -55 128 -22 190 11 21 20 43 20 50 0 7 -23 22 -50 34 -28 12 -55 29 -60 38 -6 10 -9 -42 -10 -151z"/>
 <path d="M302 305 c-13 -13 -37 -27 -54 -30 -39 -9 -44 -28 -19 -70 14 -25 21 -53 21 -91 0 -64 -13 -94 -40 -94 -10 0 -22 -4 -25 -10 -4 -6 22 -10 69 -10 l76 0 0 165 c0 91 -1 165 -2 164 -2 -1 -14 -12 -26 -24z"/>
 </g>
<g id="layer102" fill="#cdcdcd" stroke="none">
 <path d="M54 411 c-45 -12 -54 -19 -54 -47 0 -41 16 -60 70 -83 27 -12 50 -27 50 -34 0 -7 -9 -29 -20 -50 -24 -44 -26 -116 -5 -157 17 -34 59 -49 86 -31 10 6 25 11 34 11 40 0 49 125 14 185 -25 42 -20 61 20 70 77 17 106 95 47 124 -34 16 -195 24 -242 12z"/>
 </g>

</svg>