<?xml version="1.0" encoding="UTF-8" standalone="no"?>
<!-- Generator: Gravit.io -->
<svg xmlns="http://www.w3.org/2000/svg" xmlns:xlink="http://www.w3.org/1999/xlink" style="isolation:isolate" viewBox="0 0 200 200" width="200" height="200"><defs><clipPath id="_clipPath_8GmVqpzwrMvWh0aOcaU0RwcBqQ1k12e8"><rect width="200" height="200"/></clipPath></defs><g clip-path="url(#_clipPath_8GmVqpzwrMvWh0aOcaU0RwcBqQ1k12e8)"><defs><filter id="IImLOvuXGvdz0keOJJ4ZXnIStjVxyDVo" x="-200%" y="-200%" width="400%" height="400%"><feGaussianBlur xmlns="http://www.w3.org/2000/svg" stdDeviation="10.64815047584079"/></filter></defs><g filter="url(#IImLOvuXGvdz0keOJJ4ZXnIStjVxyDVo)"><path d=" M 52 121 C 52 85.126 81.126 56 117 56 C 152.874 56 182 85.126 182 121 C 182 156.874 152.874 186 117 186 C 81.126 186 52 156.874 52 121 Z " fill="rgb(49,47,47)" fill-opacity="0.7"/></g><path d=" M 25 100 C 25 58.606 58.606 25 100 25 C 141.394 25 175 58.606 175 100 C 175 141.394 141.394 175 100 175 C 58.606 175 25 141.394 25 100 Z " fill="rgb(255,0,0)"/><g id="Group"><path d=" M 137 69.5 C 137 62.601 142.601 57 149.5 57 C 156.399 57 162 62.601 162 69.5 C 162 76.399 156.399 82 149.5 82 C 142.601 82 137 76.399 137 69.5 Z " fill="rgb(235,235,235)"/><path d=" M 126 100 C 126 93.101 131.601 87.5 138.5 87.5 C 145.399 87.5 151 93.101 151 100 C 151 106.899 145.399 112.5 138.5 112.5 C 131.601 112.5 126 106.899 126 100 Z " fill="rgb(235,235,235)"/><path d=" M 126.5 39.5 C 126.5 32.601 132.101 27 139 27 C 145.899 27 151.5 32.601 151.5 39.5 C 151.5 46.399 145.899 52 139 52 C 132.101 52 126.5 46.399 126.5 39.5 Z " fill="rgb(235,235,235)"/><path d=" M 137 132.5 C 137 125.601 142.601 120 149.5 120 C 156.399 120 162 125.601 162 132.5 C 162 139.399 156.399 145 149.5 145 C 142.601 145 137 139.399 137 132.5 Z " fill="rgb(235,235,235)"/><path d=" M 126.5 164.5 C 126.5 157.601 132.101 152 139 152 C 145.899 152 151.5 157.601 151.5 164.5 C 151.5 171.399 145.899 177 139 177 C 132.101 177 126.5 171.399 126.5 164.5 Z " fill="rgb(235,235,235)"/><path d=" M 126.5 39.5 C 126.5 32.601 132.101 27 139 27 C 145.899 27 151.5 32.601 151.5 39.5 C 151.5 46.399 145.899 52 139 52 C 132.101 52 126.5 46.399 126.5 39.5 Z " fill="rgb(255,255,255)"/><rect x="141.5" y="36" width="5.5" height="128.5" transform="matrix(1,0,0,1,0,0)" fill="rgb(235,235,235)"/></g><g id="Group"><path d=" M 45.25 60.5 C 45.25 53.601 50.851 48 57.75 48 C 64.649 48 70.25 53.601 70.25 60.5 C 70.25 67.399 64.649 73 57.75 73 C 50.851 73 45.25 67.399 45.25 60.5 Z " fill="rgb(235,235,235)"/><path d=" M 34.25 91 C 34.25 84.101 39.851 78.5 46.75 78.5 C 53.649 78.5 59.25 84.101 59.25 91 C 59.25 97.899 53.649 103.5 46.75 103.5 C 39.851 103.5 34.25 97.899 34.25 91 Z " fill="rgb(235,235,235)"/><path d=" M 45.25 123.5 C 45.25 116.601 50.851 111 57.75 111 C 64.649 111 70.25 116.601 70.25 123.5 C 70.25 130.399 64.649 136 57.75 136 C 50.851 136 45.25 130.399 45.25 123.5 Z " fill="rgb(235,235,235)"/><path d=" M 34.5 155.5 C 34.5 148.601 40.101 143 47 143 C 53.899 143 59.5 148.601 59.5 155.5 C 59.5 162.399 53.899 168 47 168 C 40.101 168 34.5 162.399 34.5 155.5 Z " fill="rgb(235,235,235)"/><path d=" M 49.5 45 L 49.5 43.643 L 55 39.714 L 55 39.714 L 55 155.5 L 49.5 155.5 L 49.5 45" fill="rgb(255,255,255)"/></g><g id="Group"><path d=" M 93.5 67.5 C 93.5 60.601 99.101 55 106 55 C 112.899 55 118.5 60.601 118.5 67.5 C 118.5 74.399 112.899 80 106 80 C 99.101 80 93.5 74.399 93.5 67.5 Z " fill="rgb(235,235,235)"/><path d=" M 82.5 98 C 82.5 91.101 88.101 85.5 95 85.5 C 101.899 85.5 107.5 91.101 107.5 98 C 107.5 104.899 101.899 110.5 95 110.5 C 88.101 110.5 82.5 104.899 82.5 98 Z " fill="rgb(235,235,235)"/><path d=" M 83 37.5 C 83 30.601 88.601 25 95.5 25 C 102.399 25 108 30.601 108 37.5 C 108 44.399 102.399 50 95.5 50 C 88.601 50 83 44.399 83 37.5 Z " fill="rgb(235,235,235)"/><path d=" M 93.5 130.5 C 93.5 123.601 99.101 118 106 118 C 112.899 118 118.5 123.601 118.5 130.5 C 118.5 137.399 112.899 143 106 143 C 99.101 143 93.5 137.399 93.5 130.5 Z " fill="rgb(235,235,235)"/><path d=" M 83 162.5 C 83 155.601 88.601 150 95.5 150 C 102.399 150 108 155.601 108 162.5 C 108 169.399 102.399 175 95.5 175 C 88.601 175 83 169.399 83 162.5 Z " fill="rgb(235,235,235)"/><path d=" M 83 37.5 C 83 30.601 88.601 25 95.5 25 C 102.399 25 108 30.601 108 37.5 C 108 44.399 102.399 50 95.5 50 C 88.601 50 83 44.399 83 37.5 Z " fill="rgb(235,235,235)"/><rect x="98" y="34" width="5.5" height="128.5" transform="matrix(1,0,0,1,0,0)" fill="rgb(235,235,235)"/></g></g></svg>